<?xml version="1.0" encoding="UTF-8"?>
<svg xmlns="http://www.w3.org/2000/svg" xmlns:xlink="http://www.w3.org/1999/xlink" width="375pt" height="374.999991pt" viewBox="0 0 375 374.999991" version="1.2">
<defs>
<clipPath id="clip1">
  <path d="M 19 21 L 370.453125 21 L 370.453125 374 L 19 374 Z M 19 21 "/>
</clipPath>
</defs>
<g id="surface1">
<g clip-path="url(#clip1)" clip-rule="nonzero">
<path style=" stroke:none;fill-rule:nonzero;fill:rgb(0%,0%,0%);fill-opacity:1;" d="M 195.203125 373.011719 C 157.199219 373.011719 121.144531 360.976562 90.628906 338.175781 L 29.972656 354.769531 C 27.167969 355.519531 24.171875 354.691406 22.132812 352.585938 C 20.09375 350.460938 19.390625 347.414062 20.285156 344.636719 L 40.773438 280.375 C 27.121094 254.890625 19.917969 226.308594 19.917969 197.472656 C 19.917969 100.722656 98.566406 21.9375 195.1875 21.9375 C 291.820312 21.9375 370.453125 100.722656 370.453125 197.472656 C 370.453125 294.257812 291.855469 373.011719 195.203125 373.011719 Z M 92.351562 321.464844 C 94.105469 321.464844 95.855469 322.039062 97.273438 323.140625 C 125.574219 345.339844 159.445312 357.050781 195.203125 357.050781 C 283.074219 357.050781 354.535156 285.464844 354.535156 197.472656 C 354.535156 109.449219 283.074219 37.894531 195.203125 37.894531 C 107.34375 37.894531 35.867188 109.449219 35.867188 197.472656 C 35.867188 224.746094 42.957031 251.730469 56.359375 275.601562 C 57.441406 277.535156 57.679688 279.863281 57.011719 281.921875 L 39.945312 335.460938 L 90.230469 321.691406 C 90.933594 321.546875 91.648438 321.464844 92.351562 321.464844 Z M 92.351562 321.464844 "/>
</g>
</g>
</svg>
