<?xml version="1.0" encoding="UTF-8"?>
<svg xmlns="http://www.w3.org/2000/svg" xmlns:xlink="http://www.w3.org/1999/xlink" width="375pt" height="374.999991pt" viewBox="0 0 375 374.999991" version="1.2">
<defs>
<clipPath id="clip1">
  <path d="M 0 21.328125 L 375 21.328125 L 375 353.578125 L 0 353.578125 Z M 0 21.328125 "/>
</clipPath>
</defs>
<g id="surface1">
<g clip-path="url(#clip1)" clip-rule="nonzero">
<path style=" stroke:none;fill-rule:nonzero;fill:rgb(0%,0%,0%);fill-opacity:1;" d="M 187.5 353.492188 L 183.523438 350.792969 C 183.074219 350.496094 137.398438 319.304688 92.398438 276.191406 C 65.851562 250.699219 44.625 226.105469 29.324219 203.011719 C 9.898438 173.46875 0 146.101562 0 121.808594 C 0 66.476562 45.074219 21.414062 100.425781 21.414062 C 120.976562 21.414062 140.851562 27.710938 157.800781 39.707031 C 170.101562 48.40625 180.148438 59.5 187.5 72.25 C 194.851562 59.425781 204.898438 48.328125 217.199219 39.707031 C 234.148438 27.710938 254.023438 21.414062 274.574219 21.414062 C 329.925781 21.414062 375 66.476562 375 121.808594 L 375 121.882812 C 374.773438 146.027344 364.800781 173.167969 345.300781 202.636719 C 330 225.730469 308.851562 250.324219 282.300781 275.890625 C 237.375 319.152344 191.925781 350.496094 191.476562 350.792969 Z M 100.425781 35.433594 C 52.800781 35.433594 14.023438 74.199219 14.023438 121.808594 C 14.023438 143.328125 23.101562 167.996094 41.023438 195.136719 C 55.648438 217.332031 76.199219 241.175781 102 265.917969 C 138.523438 300.933594 175.574219 328 187.5 336.398438 C 199.425781 327.925781 236.25 300.707031 272.699219 265.617188 C 298.425781 240.800781 318.898438 217.03125 333.601562 194.839844 C 351.523438 167.695312 360.75 143.179688 360.898438 121.808594 C 360.898438 74.199219 322.125 35.507812 274.5 35.507812 C 239.175781 35.507812 206.851562 57.851562 193.949219 91.144531 L 187.425781 108.089844 L 180.976562 91.144531 C 168.074219 57.851562 135.75 35.433594 100.425781 35.433594 Z M 100.425781 35.433594 "/>
</g>
</g>
</svg>
