<?xml version="1.0" encoding="UTF-8"?>
<svg xmlns="http://www.w3.org/2000/svg" xmlns:xlink="http://www.w3.org/1999/xlink" width="708.75pt" height="567.000005pt" viewBox="0 0 708.75 567.000005" version="1.2">
<defs>
<clipPath id="clip1">
  <path d="M 69 0 L 636 0 L 636 566 L 69 566 Z M 69 0 "/>
</clipPath>
</defs>
<g id="surface1">
<g clip-path="url(#clip1)" clip-rule="nonzero">
<path style=" stroke:none;fill-rule:nonzero;fill:rgb(59.609985%,64.709473%,64.709473%);fill-opacity:1;" d="M 625.328125 505.207031 L 456.414062 336.363281 C 481.175781 301.445312 495.769531 259.011719 495.769531 213.042969 C 495.769531 95.472656 400.253906 0 282.632812 0 C 165.011719 0 69.941406 95.472656 69.941406 213.042969 C 69.941406 330.617188 165.453125 426.085938 283.074219 426.085938 C 329.0625 426.085938 371.511719 411.5 406.445312 386.75 L 575.363281 555.59375 C 582.4375 562.664062 591.28125 566.203125 600.566406 566.203125 C 609.851562 566.203125 618.695312 562.664062 625.773438 555.59375 C 639.039062 541.890625 639.039062 519.347656 625.328125 505.207031 Z M 140.691406 213.042969 C 140.691406 134.808594 204.367188 71.160156 282.632812 71.160156 C 360.902344 71.160156 424.574219 134.808594 424.574219 213.042969 C 424.574219 248.847656 411.308594 281.554688 389.644531 306.304688 C 386.988281 308.074219 384.335938 309.839844 381.683594 312.050781 C 379.472656 314.261719 377.261719 316.914062 375.933594 320.007812 C 350.730469 341.664062 318.449219 354.925781 282.632812 354.925781 C 204.367188 355.367188 140.691406 291.71875 140.691406 213.042969 Z M 140.691406 213.042969 "/>
</g>
</g>
</svg>
