<?xml version="1.0" encoding="UTF-8"?>
<svg xmlns="http://www.w3.org/2000/svg" xmlns:xlink="http://www.w3.org/1999/xlink" width="708.75pt" height="567.000005pt" viewBox="0 0 708.75 567.000005" version="1.2">
<defs>
<clipPath id="clip1">
  <path d="M 71.972656 1 L 636 1 L 636 565 L 71.972656 565 Z M 71.972656 1 "/>
</clipPath>
</defs>
<g id="surface1">
<g clip-path="url(#clip1)" clip-rule="nonzero">
<path style=" stroke:none;fill-rule:nonzero;fill:rgb(64.709473%,64.709473%,64.709473%);fill-opacity:1;" d="M 443.371094 283.101562 L 631.699219 94.742188 C 636.65625 89.78125 636.65625 81.765625 631.699219 76.804688 L 559.964844 5.046875 C 557.578125 2.664062 554.371094 1.332031 550.996094 1.332031 C 547.625 1.332031 544.402344 2.660156 542.03125 5.046875 L 353.691406 193.40625 L 165.363281 5.046875 C 160.605469 0.289062 152.1875 0.289062 147.429688 5.046875 L 75.683594 76.804688 C 73.296875 79.191406 71.964844 82.414062 71.964844 85.773438 C 71.964844 89.136719 73.296875 92.371094 75.683594 94.742188 L 264.011719 283.101562 L 75.683594 471.472656 C 73.296875 473.855469 71.964844 477.066406 71.964844 480.441406 C 71.964844 483.816406 73.296875 487.035156 75.683594 489.410156 L 147.429688 561.15625 C 149.902344 563.628906 153.148438 564.871094 156.394531 564.871094 C 159.644531 564.871094 162.890625 563.628906 165.363281 561.15625 L 353.691406 372.796875 L 542.03125 561.15625 C 546.988281 566.113281 555.003906 566.113281 559.964844 561.15625 L 631.699219 489.410156 C 636.65625 484.449219 636.65625 476.433594 631.699219 471.472656 Z M 443.371094 283.101562 "/>
</g>
</g>
</svg>
